<?xml version="1.0" encoding="utf-8" ?>
<svg baseProfile="full" height="250" version="1.1" width="800" xmlns="http://www.w3.org/2000/svg" xmlns:ev="http://www.w3.org/2001/xml-events" xmlns:xlink="http://www.w3.org/1999/xlink"><defs /><rect fill="white" height="250" width="800" x="0" y="0" /><path d="M25,125 m29.4080993652,6.40749893188 l0.723600435257,-0.0470673859119 1.36457252502,-0.394033908844 l1.6533000946,-1.43345432281 1.80376548767,-2.93670349121 l2.23109264374,-3.67876739502 2.76212043762,-4.32887420654 l3.38884887695,-5.11171913147 2.87733745575,-4.84313011169 l2.22514762878,-4.19262771606 1.47701320648,-2.67135162354 l0.0179755657911,-2.14895362854 0.443487882614,-0.278258919716 l0.0397455215454,0.250693297386 0.210330986977,1.4675078392 l-0.727142524719,2.71417446136 -0.939291286469,4.30660324097 l-0.862958717346,4.87311859131 -0.341743803024,5.29791793823 l-0.362810182571,4.96873931885 -0.307623648643,4.43904190063 l-0.253311729431,3.95710906982 -0.340301036835,3.07112731934 l-0.427988576889,2.08539772034 0.197136044502,0.617794322968 m-5.56852531433,-13.1037002563 l0.00828539580107,0.0482880473137 0.194003295898,-0.185010695457 l1.41730651855,0.565114879608 1.76360225677,0.154091072083 l2.79360618591,0.403194952011 3.33354110718,0.0600356459618 l3.46902427673,-0.420479536057 3.5911239624,-0.797401618958 m5.14824676514,0.365196824074 l0.151576352119,1.07687902451 -0.425542974472,1.37276029587 l-0.0482610493898,1.87055473328 -0.238106608391,1.28820972443 l0.720457553864,1.15452919006 1.1087846756,0.876069450378 l1.4054567337,0.331289315224 1.72751121521,-0.172876548767 l1.19439601898,-1.01959218979 1.43495473862,-0.9320728302 l1.08640289307,-2.05736522675 0.619211101532,-2.05413475037 l0.227088451385,-2.03926010132 -0.270182466507,-2.03415203094 l-0.548836183548,-1.70826377869 -1.09384260178,-1.53484010696 m9.6521232605,10.0534133911 l0.801743412018,0.390761947632 0.0131907179952,0.636190128326 l-0.486490488052,1.33307323456 -0.360673546791,2.21129150391 l-0.139667153358,1.47542362213 0.123129200935,0.552407646179 l0.306423282623,-0.863837146759 0.633113002777,-1.88798427582 m5.18797836304,-25.1175476074 l0.384945034981,-0.795596122742 -0.128273034096,-0.285940146446 l-0.200327301025,-0.289378881454 0.0522766053677,0.720385551453 m10.5303733826,16.0485931396 l1.00089302063,0.664919137955 -0.0887651741505,-0.157654154301 l-1.02991847992,-0.214261031151 -2.76671867371,-0.0724803745747 l-3.35680084229,0.793710231781 -2.2928440094,0.988683509827 l-1.73609809875,1.16546039581 -0.702178192139,1.04933271408 l0.308782124519,0.949211502075 1.00054750443,1.3453962326 l1.79790306091,1.3604139328 2.50519371033,1.46383056641 l3.27772102356,1.54484272003 2.27757797241,1.28838920593 l1.40314407349,1.59262752533 -0.299508213997,1.29864501953 l-1.27522010803,1.83762969971 -3.25685920715,1.92699127197 l-3.606772995,1.73669166565 -3.56190986633,0.790076541901 l-2.03106231689,0.799556255341 -1.02092456818,0.270888757706 m55.1149230957,-33.9541656494 l-2.38041801453,-2.59423732758 -1.26928462982,-1.4527712822 l-1.58567800522,-0.969299221039 -2.07183227539,-0.375648283958 l-1.40663738251,0.759617376328 -1.47092733383,1.72150592804 l-1.18721637726,2.69294071198 -0.796708631516,4.33551063538 l-0.0409518629313,5.48251342773 -0.706586074829,5.11037826538 l0.047928583622,5.1050491333 0.111618328094,4.22889518738 l0.408867931366,3.45475540161 0.380607032776,1.75800533295 l-0.101859760284,0.446999979019 m-7.82005767822,-22.200189209 l0.233778429031,0.352740526199 1.49205780029,0.5785551548 l2.60625991821,0.760396909714 3.31851654053,0.527588176727 l3.40774650574,-0.192463803291 2.11406211853,-0.716885948181 l1.36362981796,-1.06035060883 1.40940818787,-1.06472158432 m5.94435882568,-20.4419464111 l-0.419583892822,2.23669834137 -0.261268091202,3.48189048767 l-0.441319513321,4.78424758911 -0.304551887512,5.69223365784 l-0.173601388931,5.60220794678 -0.337619662285,4.71356124878 l0.102923023701,3.48752326965 -0.06534678936,1.10725917816 l0.744906806946,-0.0025499464944 1.8363363266,-1.23460922241 l2.08012981415,-2.05813388824 2.16962718964,-2.52167778015 l2.3739906311,-1.48414459229 1.28778629303,-0.301990056038 l1.23223609924,0.934427165985 1.42382144928,2.50179843903 l1.19156856537,2.63211288452 1.58126630783,1.87045307159 l2.74671516418,1.2463060379 2.9127702713,-0.156471014023 l3.18866081238,-1.27584095001 3.01254806519,-1.93232784271 l3.49160919189,-2.73252124786 2.51427345276,-2.73672122955 l1.16350650787,-2.1414232254 -0.0492258250713,-0.881701850891 l-1.69731941223,-0.67517747879 -1.80135936737,0.525110292435 l-2.12068862915,1.84962348938 -1.58528280258,3.18765048981 l-0.886663818359,3.47096290588 0.837065792084,3.0589849472 l2.34557342529,2.62410430908 4.3080909729,1.77301521301 l4.59256134033,-0.255405545235 m53.287286377,-6.2459487915 l-1.94506816864,0.643986320496 -0.670590162277,1.68192691803 l-0.386693382263,1.11928119659 -0.0196418404579,0.951576137543 l0.801924610138,1.02518615723 1.59456424713,0.998785400391 l1.96509609222,0.513581037521 2.08972320557,-0.29243888855 m1.40473270416,-29.0692993164 l-0.148148357868,1.37430171967 -0.435221576691,1.98077316284 l0.0828717887402,3.49574356079 0.618280410767,4.08052787781 l0.36182012558,3.52901496887 0.586634159088,4.09100189209 l0.270438337326,3.12158813477 0.191864562035,2.42432899475 l-0.0194693386555,1.34493350983 0.401927280426,0.974666023254 l0.214942550659,0.0424574166536 0.490820598602,-0.397197270393 m39.7418151855,-19.6245864868 l0.141194343567,0.144688856602 -0.00716943815351,0.117082023621 l0.201982522011,1.15850305557 0.634464216232,2.81411476135 l0.345869350433,3.2037612915 0.491763544083,3.60586471558 l0.0786675453186,2.89874629974 -0.00423344969749,2.81947364807 l-0.250022935867,1.75612106323 -0.624865627289,0.597517871857 l0.188779294491,0.158290195465 -0.282994174957,-0.667440891266 l0.458476638794,-2.04048442841 0.656260728836,-3.85719642639 l1.85726242065,-4.39509620667 2.41129016876,-3.97648086548 l3.04117088318,-2.9162689209 2.17636489868,-1.77608795166 l2.01265869141,-0.00722243264318 1.14422855377,1.23231525421 l0.426638269424,2.59243545532 -0.22689101696,3.57384376526 l-1.06873941422,3.0468536377 -0.926108169556,2.98190479279 m25.3376693726,-17.6216873169 l-1.19911346436,-0.495822000504 -1.30700874329,0.4038397789 l-1.42133827209,0.813529777527 -1.28624076843,1.29686841965 l-0.639878749847,1.56460847855 0.0864730238914,1.83571300507 l1.48175354004,2.29285259247 1.92103614807,2.37672843933 l2.53250522614,2.7114528656 2.4389093399,2.42439346313 l1.84577865601,2.17677345276 0.875319194794,1.83817825317 l-0.215391278267,1.56273317337 -1.31331100464,1.4930847168 l-2.76039619446,0.903420257568 -2.66481361389,1.02084541321 l-2.89894771576,0.576445055008 -2.52919387817,0.264930438995 l-1.14118595123,0.464084434509 -0.614102172852,-0.345198106766 l0.294436573982,-0.0098268173635 1.37500753403,-0.509368991852 l1.92609386444,-1.16401491165 2.78481216431,-1.57007989883 m22.8777099609,-12.3910064697 l-1.02382984161,0.523984670639 -1.79101028442,1.27290248871 l-1.73796100616,1.9194316864 -0.933030223846,2.33897743225 l-0.192198467255,1.66125450134 0.689552593231,1.5409403801 l2.1157075882,1.30697746277 2.700872612,0.888884353638 l2.58484954834,-0.144485735893 2.48516197205,-0.513574361801 m11.4838821411,-9.56584854126 l-0.0155557230115,0.187454080582 0.0619776010513,1.23673915863 l-0.153849554062,2.11175003052 0.260509490967,2.60980625153 l0.351951956749,2.21902446747 0.373665809631,1.33335351944 l-0.203300762177,0.0754674911499 0.474480676651,-0.00889882519841 m-1.9385559082,-19.1919692993 l-0.370973849297,-1.44398517609 -0.326822495461,0.008799675107 l0.0154659986496,-0.165336239338 0.0525851845741,0.563411521912 m16.2701095581,18.4466064453 l0.930172538757,-1.22442989349 2.07442760468,-1.91182479858 l1.3991230011,-2.78576374054 0.766475772858,-3.44921264648 l0.507988739014,-3.09917087555 -0.199962496758,-2.48965549469 l-0.5254134655,-1.3932182312 -1.61094970703,-0.42725687027 l-2.1272983551,0.347088909149 -2.36174755096,2.0446805954 l-2.4987039566,3.20360145569 -1.63439903259,4.01437454224 l-0.74304394722,3.78825645447 -0.0242807418108,2.8602519989 l0.905909729004,2.05279521942 1.96332893372,1.34028921127 m24.9766479492,-12.4374076843 l-0.816528511047,-1.12485361099 -1.48134336472,-0.426561880112 l-2.22519226074,0.175377821922 -2.23039283752,1.31085195541 l-2.09140491486,1.80015182495 -1.61910476685,2.38217201233 l-1.33291110992,2.36750259399 -0.23142156601,2.44800338745 l1.26118812561,1.72739334106 1.65902709961,0.596700668335 l2.46165065765,-0.113878130913 2.27784252167,-1.5074587822 l2.42347316742,-1.98697471619 2.43374996185,-2.15714530945 l1.1037940979,-2.9978017807 0.913274383545,-2.77086658478 l-0.409744024277,-2.32015609741 -1.00871648788,-0.93503074646 l-0.811518096924,-0.639805793762 -0.879706382751,-0.568636894226 l-0.0327282875776,0.214844202995 0.228560018539,-0.0085257820785 l1.44236907959,0.391571736336 m23.8710189819,-18.5063018799 l-0.0333231538534,0.411816644669 0.665040969849,2.49098300934 l0.666133356094,3.72958946228 0.265113306046,4.58042488098 l0.422662448883,4.8875617981 0.689335441589,4.44734230042 l0.0628891706467,4.00039978027 0.278119206429,3.8465221405 m-9.26946411133,-7.61991882324 l0.485326862335,0.386502599716 1.79533214569,0.853159236908 l2.46308917999,0.649932909012 2.88054180145,0.648413133621 l3.12329750061,0.0631942152977 2.95608348846,-0.945750045776 l3.9510055542,-0.759005594254 2.93966407776,-1.85399074554 l2.710197258,-2.36688346863 2.05187759399,-2.72289161682 l0.538739013672,-2.84054088593 -0.372908735275,-2.77711296082 l-1.63221664429,-2.36372871399 -1.50143251419,-1.02902040482 l-2.69833545685,-0.204317355156 -2.7873342514,0.811487579346 l-2.08838825226,2.15105171204 -2.15971012115,2.8267747879 l-1.24419574738,4.00362472534 -0.949264812469,4.46068992615 l-0.540874052048,4.31259117126 0.50792593956,3.73996810913 l0.896573257446,2.28889007568 1.52918663025,1.88058586121 l1.16466093063,0.370730733871 1.4572224617,0.120724904537 l1.42884054184,-0.671090698242 1.47261390686,-1.22201862335 l0.94511013031,-1.59599132538 1.26516151428,-1.74587745667 l0.719067287445,-1.18946456909 0.222322511673,-0.426807165146 l0.280788373947,0.134135437012 0.882147407532,1.31613912582 l0.0668633639812,1.54791059494 0.0262005001307,1.64149265289 l0.273786973953,1.08885850906 1.09743843079,1.18472042084 l0.997182559967,0.592878770828 1.47325019836,-0.142491221428 m12.2722000122,-10.1420547485 l-1.22929935455,-0.637220096588 -1.43406715393,-0.0151275411248 l-1.88392314911,0.79260134697 -1.36932477951,1.62906970978 l-1.2679690361,1.32251472473 0.247899866104,1.36234712601 l0.222038125992,1.16199445724 1.23237600327,1.39020242691 l1.61221580505,0.843265724182 1.74092712402,0.303110790253 l1.80259037018,-0.219600820541 1.75990657806,-0.504621744156 l1.10825614929,-1.32072124481 0.693618106842,-1.77721366882 l-0.0701652646065,-1.71132831573 -0.426214265823,-1.63615531921 l-1.055884552,-1.39714851379 -1.87057170868,-0.951354980469 l-0.875749969482,-0.14951621294 -0.985852050781,0.0174934267998 m16.0903549194,-1.8739736557 l0.0703497469425,-0.18057103157 0.139419603348,-0.0458308905363 l0.296551179886,0.172987794876 0.737193536758,1.36085939407 l0.949160385132,2.0714138031 0.833443260193,2.67718009949 l0.18783646822,1.9505979538 -0.232057332993,1.44861679077 l0.260929822922,1.07187976837 -0.263529038429,0.351771855354 l-0.254139328003,-0.030596190691 0.298018693924,-0.268589687347 l-0.270397090912,-1.15121688843 0.40882973671,-2.0315486908 l0.221869277954,-1.97229156494 0.706321144104,-1.06673126221 l0.761788320541,-0.579210948944 1.39447507858,0.364677143097 l1.7012720108,1.59458446503 0.702473115921,1.47973461151 l1.0804233551,2.0953868866 0.579919433594,1.3980928421 m13.2054458618,-7.7701423645 l0.282165384293,-0.543221235275 -0.322759389877,-0.581397628784 l-0.597395944595,-0.838346385956 -1.57179470062,-0.439712190628 l-1.66878662109,-0.0393776267767 -2.06686096191,1.09267749786 l-2.19712352753,1.96279239655 -1.40169439316,2.40322570801 l-0.623159837723,2.102318573 0.520889091492,0.952472019196 l0.726793670654,0.533244514465 1.98905601501,-0.132292938232 l1.74348621368,-1.04361057281 2.21579532623,-1.50117607117 l2.38160934448,-2.17515087128 2.18579750061,-2.91333198547 l1.39740180969,-3.00018806458 0.330877757072,-2.01155967712 l-0.222054553032,-0.136004316807 -0.160485267639,1.07485084534 l-0.537069225311,2.51989936829 0.0238038226962,2.6677280426 l0.440238523483,1.92699794769 1.47711219788,1.44201812744 l2.02768993378,0.566076993942 2.12915706635,0.194092643261 l1.76277008057,-0.696686458588 1.48001422882,-0.962068271637 m6.78545532227,-12.3655639648 l-0.246026206017,0.290226888657 -0.446049499512,0.63211145401 l-0.112927770615,2.18853473663 0.318000102043,2.83737449646 l0.49664645195,2.17410430908 0.535194158554,2.52429294586 l0.196432769299,1.66264400482 0.477201747894,1.09860572815 l0.320928668976,0.317864561081 0.443163299561,-0.0874801397324 l0.908842468262,-1.1600687027 1.24508676529,-2.11553611755 l1.17040815353,-2.54931297302 1.58208942413,-1.47445964813 l1.47121219635,-0.294152998924 0.680828332901,0.135856461525 l0.872567939758,0.719695091248 0.545234918594,0.915447425842 l0.441555738449,1.36178827286 0.283795237541,1.36791782379 l0.409326267242,1.87206993103 0.1921636343,1.67083415985 l0.374385714531,1.22156639099 0.794273090363,0.471614122391 m53.0251525879,-11.8039131165 l-0.392003297806,0.00989168956876 -0.240211081505,-0.11127589941 l-0.769221258163,-0.157168078423 -1.28350439072,0.535687923431 l-1.85623397827,1.27397584915 -1.56742515564,1.96496315002 l-0.924550437927,2.57055473328 -0.612675237656,2.53848953247 l-0.13345143795,1.91939029694 0.199208641052,1.63904037476 l1.47276039124,1.45882968903 1.53973617554,1.07277793884 l1.66516456604,0.58861541748 2.37700099945,0.200277376175 l2.14298095703,-0.518549251556 2.1050945282,-0.615427017212 m13.7992538452,-14.7191253662 l-0.784277200699,0.143521142006 -1.07782659531,0.476539421082 l-1.14241838455,1.70563774109 -1.441426754,2.32711963654 l-1.00681610107,2.49061794281 -0.158002567291,1.96226711273 l0.263738369942,1.37946186066 0.786416959763,0.8290184021 l1.12253379822,0.244676065445 0.70413351059,-0.324203848839 l1.38042144775,-0.393286466599 1.00847578049,-0.959785652161 l0.984313774109,-1.72747516632 0.144458866119,-2.28479003906 l1.0105881691,-2.11514854431 0.668455123901,-2.55917816162 m22.5756378174,-20.427456665 l0.403786611557,2.0123336792 -0.116075825691,2.81747322083 l0.0873124837875,3.84460601807 -0.530377817154,4.16058959961 l-0.49132065773,4.31058120728 -0.553421211243,3.34709320068 l-0.456893014908,2.98759059906 -0.408385467529,2.32632045746 m-4.66753311157,-11.1679534912 l1.08011617661,-0.0818112611771 1.26783370972,-0.315014123917 l1.86074924469,0.140091204643 2.66481990814,0.183873343468 l2.555900383,0.0918067455292 2.26345043182,0.28597536087 l1.73908843994,0.276812171936 1.49913730621,0.268269729614 m1.98664989471,-0.162739729881 l0.453906488419,0.326993584633 0.11445350647,0.346291637421 l0.209421420097,1.56975698471 0.562036561966,2.0165813446 l0.389189267159,2.21777744293 0.559436750412,2.37271671295 l0.195176768303,1.77840652466 0.1121332407,0.897603034973 l0.431635904312,0.178033924103 -0.378898954391,-0.333234405518 l0.385974526405,-1.6397064209 m-3.60427436829,-13.9106842041 l-0.277152729034,-0.181755542755 0.279629325867,-0.221373701096 l-0.0249171257019,-0.251729941368 1.30618429184,0.0811606109142 m12.6120025635,10.4881469727 l0.0284220129251,0.0268718063831 0.758213567734,-0.570006322861 l1.9827047348,-0.827526569366 1.17810735703,-2.07948188782 l2.03346939087,-1.93304767609 1.50879716873,-1.81284675598 l0.984359741211,-1.60019321442 0.845529937744,-0.811790466309 l-0.153144407272,-0.551326704025 -0.542659711838,0.00853034779429 l-1.09191246033,0.675286340714 -1.65898990631,1.41491270065 l-1.89981384277,2.20611763 -1.34097919464,2.44002170563 l-0.168876779079,2.54595928192 0.66227145195,2.13868789673 l1.96234283447,1.75776634216 2.622747612,1.23042058945 l2.30158920288,0.77904882431 1.4114112854,-0.0105153754354 m40.0254211426,-20.2574462891 l-0.00757622420788,0.104142320156 0.20822660923,-0.0419656634331 l0.695879745483,-0.759558105469 1.45968542099,-0.925414466858 l1.90991191864,-1.34264001846 2.2050409317,-1.47517547607 l2.86988449097,-1.1315413475 2.50108299255,-0.456106233597 m-2.01589031219,4.71348114014 l-0.131920170784,2.27785072327 -0.0552819252014,1.84109401703 l-0.170350289345,1.93529129028 -0.562492370605,1.62799854279 l-0.404294776917,1.59665699005 -0.181011080742,1.45465097427 l-0.305940389633,1.49474954605 -0.361608743668,1.61478500366 l-0.326361513138,1.6023519516 0.109504187107,1.74250431061 l0.188273072243,1.47415218353 -0.296970248222,0.400052118301 l0.62707285881,0.433629083633 1.20939922333,0.476356220245 l1.61369857788,0.416574525833 1.36806259155,-0.0370222628117 l1.34516382217,-0.114528167248 0.964967823029,0.176233410835 l0.649194526672,-0.195982575417 0.988577079773,0.103636932373 l0.600500488281,0.0102168314159 0.447559404373,0.192174005508 m10.027835083,-26.7263397217 l0.0485347539186,-0.0629812180996 0.0178068161011,0.163875031471 l-0.702176094055,1.10905017853 -0.316054964066,2.74283809662 l-1.34704828262,3.23356781006 -1.1248752594,4.15212402344 l-1.46194753647,4.74592247009 -0.794664812088,4.50258560181 l-0.534675693512,3.35966911316 -0.297368240356,1.91138248444 l0.726842975616,1.13364133835 1.05488977432,0.107099556923 l1.2783955574,-1.06572818756 1.7836812973,-2.37541370392 l2.20032310486,-3.8473941803 3.2166267395,-4.11842269897 l2.4335647583,-4.3218208313 2.49902687073,-4.26060447693 l2.59917793274,-3.91379051208 2.10516853333,-3.44900970459 l1.54821157455,-3.51967926025 1.40393724442,-2.51282596588 l1.13705177307,-1.5270980835 0.480937814713,-0.182641577721 l0.103859496117,0.725493240356 -0.164343941212,1.96830215454 l-0.205617213249,3.57248306274 -1.05750007629,3.89663162231 l-0.946794128418,4.85956878662 -0.844165325165,5.22898178101 l-1.14925775528,5.02577133179 -0.899028110504,4.33873748779 l-0.39575009346,3.65228881836 -0.505706214905,2.03094139099 l-0.104890370369,0.694422340393 m-2.87922706604,-11.8787200928 l-0.163975262642,-0.253530049324 0.308913803101,-0.269116210937 l0.344375991821,-0.072745269537 2.12012901306,0.386071228981 l1.77234897614,-0.105256032944 2.52593536377,0.279907202721 l2.37351779938,0.287887334824 m13.6244949341,-6.1712059021 l-2.25786800385,-0.663664579391 -1.39575214386,0.685214090347 l-1.82889709473,1.60645904541 -1.6265083313,2.14658374786 l-1.38794174194,2.51860923767 -0.610233783722,2.78248023987 l-0.319058465958,2.34613685608 0.445661020279,1.9667591095 l0.831622505188,1.0561050415 2.01145248413,0.696979999542 l2.55951576233,-0.569688749313 2.78114871979,-1.5411028862 l3.53104057312,-2.23632907867 2.47235965729,-3.14580802917 l2.65072536469,-2.88803901672 1.58518018723,-2.64333057404 l0.326287531853,-2.56354637146 0.0435647249222,-1.33022203445 l-0.777039527893,-0.925982189178 -0.174210453033,-0.0331336885691 l-0.997456741333,0.367901802063 -1.02531862259,1.36744537354 l-1.26198816299,2.24964256287 -1.16037511826,2.89613132477 l-0.833080482483,3.02380275726 0.542986917496,3.17028579712 l0.284974527359,2.28501853943 1.37040920258,2.09835395813 m16.9837661743,-6.77691192627 m-1.72335567474,-0.371619653702 l-0.0211173325777,-0.0698584258556 -0.0947890162468,-0.0859242379665 l0.150616061687,-0.0718125164509 0.479217100143,-0.353020095825 l1.01275501251,-0.480697393417 1.27739620209,-0.901955413818 l1.83617553711,-1.06987199783 1.93775520325,-1.40717544556 l1.58814611435,-1.5962351799 1.90729694366,-1.18790645599 l0.682660627365,-1.33330535889 0.960271453857,-0.651770401001 l0.226990222931,-0.325828504562 -0.282336521149,-0.0398767918348 l-0.275299191475,0.221618080139 -0.723507928848,1.62603282928 l-2.22535476685,2.29391460419 -1.85876312256,3.07158622742 l-2.1645357132,3.4964641571 -1.39107704163,3.35734443665 l-1.26963577271,2.06707649231 0.328074407578,1.39657993317 l0.198430633545,0.640560722351 m10.3945655823,-14.8861099243 l0.679944801331,1.90402774811 0.147337770462,2.39626331329 l-0.251750588417,2.45827674866 -0.0166973769665,2.81752929688 l-1.1528421402,2.41480236053 -1.20132637024,2.02092514038 l-0.285881543159,1.70562763214 -0.612739753723,0.689680957794 m7.4379737854,-13.1340362549 l0.6059882164,-0.17598439455 0.670866298676,-0.158406376839 l0.716611003876,0.194545030594 0.6175740242,0.447775125504 l0.661434221268,1.36575164795 0.508362340927,1.03398523331 l1.10252609253,1.43085575104 0.98211889267,0.981216621399 l1.31263599396,0.615296936035 1.13087835312,0.316759443283 l1.01661758423,-0.114865636826 0.863122749329,-0.631777048111 m-0.608041858673,-3.37882461548 l-0.36760892868,-0.0832375407219 -0.655466175079,0.815648651123 l-1.23521366119,1.49960174561 -2.33835525513,2.26454277039 l-1.94193477631,3.04648361206 -2.92783145905,3.82367019653 l-2.52416820526,3.85224342346 -2.19085025787,3.63195724487 l-1.8201335907,2.7337852478 -0.641651248932,1.54701280594 m41.9696929932,-33.3182952881 l0.308026337624,0.165044844151 0.093342602253,0.25872528553 l-0.396510314941,1.26660690308 0.0566777348518,1.90831871033 l-0.249114012718,1.90534095764 -0.0217403188348,2.07908172607 l-0.426541423798,1.71796607971 0.348594808578,1.26853094101 m-11.5886070251,-11.6404663086 l-0.210374593735,-0.222832584381 0.729402446747,-0.211793589592 l1.66447925568,-0.319637489319 2.86532516479,-0.579358291626 m14.0860671997,1.76894016266 l0.902644920349,0.542546033859 1.18182468414,1.44393358231 l0.854652118683,1.89865646362 0.383048272133,2.69367408752 l-0.751972866058,2.90995616913 -0.830451965332,2.98576698303 l-1.41622657776,2.38312339783 -1.01151885986,2.03082885742 m-6.25490951538,-24.548576355 l-0.461155366898,-0.720574617386 0.557242822647,0.0754009604454 l0.832605934143,0.0749915719032 1.07745323181,0.0897252202034 m20.354234314,4.60600357056 l0.0634212434292,0.312683701515 -1.44847822189,0.179334640503 l-1.33477039337,0.375412797928 -1.51894779205,0.822565937042 l-2.1536315918,0.779564666748 -1.79812698364,1.09449806213 l-1.27788696289,0.993211174011 -0.0761123418808,1.35423526764 l0.344831514359,1.46063976288 1.5495388031,1.56435289383 l2.431980896,1.5359000206 2.01383552551,1.51556348801 l2.09896392822,1.62792930603 1.86416168213,1.61112384796 l0.172158169746,1.39848575592 -0.244906020164,1.30132112503 l-1.18351421356,1.27563476562 -1.95568714142,1.16119651794 l-2.16595611572,0.730251312256 -2.22201843262,0.232028698921 m46.4229858398,-16.3343185425 m-4.34705543518,-2.04479942322 l-1.45185613632,0.570020771027 -2.03799324036,1.04195451736 l-1.17601509094,1.9729434967 -2.53213539124,2.50457382202 l-1.23259487152,3.47262420654 -1.21017513275,3.51786460876 l-0.572976064682,2.77283477783 -0.259048676491,1.96020278931 l0.0346659123898,0.989556694031 0.301206731796,0.494655561447 l0.524886655807,-0.759857130051 0.408941698074,-1.46174945831 l0.661317253113,-2.26645584106 1.26191253662,-2.99956417084 l1.49735689163,-3.5983291626 0.917422389984,-3.24900932312 l1.29587516785,-2.89690170288 0.734526824951,-2.61502246857 l1.06381492615,-2.29154586792 0.778735542297,-1.69648914337 l1.41305599213,-1.11930370331 1.25510416031,-0.440295886993 l1.14356803894,0.0317083537579 1.57941150665,0.939312362671 l1.41714763641,2.06512031555 1.97981910706,3.58497962952 l1.13752880096,4.62012023926 0.982994842529,4.5441860199 l0.169196295738,3.74893913269 -0.180726504326,3.22448692322 l0.341034221649,2.25387783051 -0.106782245636,0.599229240417 m9.12016677856,-28.0956665039 l-0.716630506516,1.48169183731 -0.557148647308,2.59715747833 l-0.433987665176,4.23807983398 -0.0186150997877,5.09488754272 l-0.023954936862,3.98047981262 0.318472099304,3.64139137268 l-0.0931228876114,2.82478122711 0.171306741238,1.5499502182 m-6.86144943237,-8.62022476196 l1.02306556702,-0.476269865036 1.84221382141,-0.936203575134 l2.50090789795,-1.36268758774 2.08184967041,-1.67727127075 l3.16863079071,-1.94609718323 2.40433731079,-2.43553276062 l2.53798065186,-2.62822933197 2.58280200958,-2.97978878021 l1.34726924896,-3.50104179382 1.27517490387,-3.61101875305 l0.0131948083639,-2.75514698029 -0.862173366547,-1.73492527008 l-0.672980976105,-0.545732736588 -1.63012008667,-0.0106109894812 l-0.987156581879,1.47873153687 -1.09888696671,2.59582710266 l-0.909938144684,3.43608932495 -0.163311171532,4.24577560425 l-0.157084655762,4.14891433716 0.214302206039,4.4759979248 l0.682939624786,4.10006752014 0.21945681572,3.40410766602 l-0.193017840385,2.46318244934 0.623810720444,1.79341468811 l0.54990029335,0.763719367981 -0.0712581574917,-0.0465756118298 l-0.105233311653,-0.485673522949 0.877547454834,-1.59403877258 l0.92705450058,-2.57574195862 1.10535421371,-3.12140674591 l1.30966701508,-3.15662078857 1.90030937195,-3.30303649902 l2.57655029297,-2.59731063843 2.19983272552,-1.83479671478 l1.56216630936,-0.75391869545 2.1534072876,0.389473485947 l1.84271774292,1.46490774155 1.33854141235,2.63931732178 l0.855836582184,3.85656967163 0.697059440613,3.50027580261 l0.427097511292,3.34208526611 0.20089468956,2.69483642578 l0.468476390839,1.87551364899 0.407011127472,1.06495857239 m15.7683181763,-11.2350837708 l0.361309289932,-1.77679462433 0.133969473839,-1.69977588654 l-0.450135850906,-1.30368127823 -1.276836586,-0.926573562622 l-0.846253013611,0.372777414322 -2.09516620636,0.863987827301 l-2.06136169434,1.77311210632 -1.55900382996,2.62650718689 l-1.11762008667,2.57359676361 -0.5869348526,2.48002605438 l-0.105816674232,2.30762176514 1.36487531662,1.27156276703 l1.3430729866,0.498820734024 2.0716550827,-0.297959780693 l2.172813797,-1.05520544052 1.33755683899,-1.83515758514 l1.73061218262,-2.20861968994 0.907314682007,-2.79068222046 l1.06085243225,-3.15155982971 1.62309093475,-3.44809761047 l1.26339616776,-3.82252044678 0.770036458969,-3.99996643066 l0.163437974453,-4.32330245972 0.905415630341,-4.22631111145 l-0.212403559685,-3.72324142456 0.205557155609,-3.29662590027 l-0.632006835937,-2.75457267761 -0.115910637379,-1.59644422531 l-0.285474395752,-0.543547534943 -0.178931736946,0.203411841393 l-0.662493991852,1.91509475708 -0.551981496811,2.8823387146 l-0.00804208666086,3.71226158142 -0.515058612823,4.50229454041 l0.145165657997,4.87549514771 0.517294836044,4.32963218689 l0.684550666809,4.29989204407 0.7413418293,4.30902633667 l0.835931587219,4.14191436768 0.995175552368,3.55456619263 l0.553237485886,2.9520111084 0.768105602264,1.77614116669 l0.137590301037,0.862863063812 m35.8060058594,-18.0714477539 l0.310580873489,1.85051631927 0.4043364048,2.72519283295 l0.429019880295,2.95542221069 -0.329905056953,2.69255981445 l-0.0866342663765,2.34409866333 0.446535873413,1.67239341736 l0.0454153060913,0.785050201416 0.074969047308,0.228212046623 l-0.024834010005,-0.0655325114727 0.135559785366,-1.14421291351 l0.876666259766,-1.92333774567 0.4102227211,-2.95551280975 l1.05806350708,-3.23854789734 1.73267345428,-3.28496589661 l1.32677879333,-2.63530445099 1.86168651581,-1.59427642822 l1.24267683029,-0.921868801117 1.0263469696,-0.158581924438 l1.42769927979,0.785726356506 1.24125881195,1.71690826416 l0.630841350555,2.69648342133 0.580476236343,3.54224777222 l0.960579586029,3.56788978577 0.510047245026,2.70946960449 m14.5974731445,-29.1183410645 l-0.105660259724,0.143688905239 0.142137408257,0.771883916855 l0.580025720596,2.7051776886 -0.12154841423,3.75572814941 l-0.101910603046,4.02277526855 0.0998408734798,4.07465324402 l-0.749818563461,3.51875915527 -0.430192947388,3.66844863892 l-0.616227579117,2.93299694061 0.0732544898987,2.74743041992 l0.259621334076,1.59551420212 0.217898964882,0.552798223495 m-10.2848052979,-18.5046173096 l0.126127767563,0.130689716339 1.11831140518,0.146129786968 l2.69954013824,0.434179210663 3.24554634094,0.348194479942 l2.11017799377,-0.154790854454 2.93841152191,-0.268046092987 l2.60523033142,0.0921020627022 m9.46602783203,-3.65850868225 l-0.305281972885,1.61577701569 -0.333984994888,2.87473659515 l-0.279384422302,4.13009300232 0.258298373222,4.47831115723 l-0.457624530792,3.70980110168 0.101311230659,2.95952320099 l-0.736581230164,1.73780670166 0.409346389771,0.919215011597 m-0.195755946636,-26.922265625 l0.50668554306,-0.107860934734 -0.386062574387,-0.254458212852 l0.17771832943,0.00877675786614 0.14302418232,0.065726429224 m8.22188415527,15.0985076904 l0.301630926132,-0.145726895332 0.368669247627,0.00990100800991 l-0.0121566832066,0.660572528839 0.078850877285,1.71329708099 l0.292713451385,2.21518630981 -0.105262422562,2.40993328094 l0.334863638878,2.40363502502 0.094216054678,1.84759502411 l-0.16317281723,0.753465557098 -0.353676176071,0.126825022697 l0.14000184536,-0.11838914156 0.434772205353,-1.02509298325 l0.567651176453,-2.09826641083 0.452192592621,-2.45437793732 l0.797368621826,-2.59989089966 1.29923048019,-2.63168830872 l2.07627639771,-1.71868114471 1.81578674316,-1.57393636703 l1.80714626312,-1.01572847366 1.41338863373,-0.491628551483 l1.24714040756,0.793549633026 0.466097688675,1.66189250946 l-0.230143761635,2.79236373901 -0.642678451538,3.26416702271 l-0.658991384506,3.30349960327 -0.113341462612,3.24776153564 l-0.651319503784,2.68390293121 0.0359267234802,2.31895999908 m6.73421325684,-28.1604064941 l-0.0173596411943,1.94701824188 0.559609699249,2.95872516632 l0.174910902977,3.57648429871 0.0260538816452,3.81380691528 l0.512794065475,3.50135993958 -0.15935331583,2.9844707489 l1.04464836121,2.28057479858 0.65598988533,1.93500976563 l1.39134492874,1.19357089996 1.78518810272,0.75374288559 l1.76329936981,0.193401801586 1.48258056641,-0.746023082733 m32.6262390137,-14.3023849487 l-0.241920852661,-0.0571213185787 -1.54596815109,-0.0307882845402 l-0.853410434723,-0.0889551699162 -1.1035987854,0.156744301319 l-1.37045106888,0.639741373062 -1.24557981491,1.31618261337 l-1.21179981232,2.06412220001 -0.712172889709,2.41491088867 l0.281710195541,2.78481273651 0.713330745697,1.89492721558 l0.87484331131,1.45437698364 1.6600725174,0.728698730469 l2.14949607849,-0.254075407982 2.3834186554,-0.64527797699 l2.17529850006,-1.56960201263 1.81835632324,-2.03289527893 l1.3167757988,-2.37160720825 1.33136787415,-2.55052108765 l-0.0127058908343,-2.69968070984 0.0733196794987,-2.24757728577 l-0.811030673981,-1.29766845703 -1.33640108109,-0.544537591934 l-0.915717601776,0.131144976616 -1.65217952728,0.446583223343 l-0.561818408966,0.919793224335 -0.709127855301,1.45788536072 l0.40034995079,2.26323032379 1.50202417374,2.44871730804 " fill="none" stroke="black" stroke-width="1" /></svg>